<?xml version="1.0" standalone="no"?>
<!DOCTYPE svg PUBLIC "-//W3C//DTD SVG 20010904//EN"
 "http://www.w3.org/TR/2001/REC-SVG-20010904/DTD/svg10.dtd">
<svg version="1.0" xmlns="http://www.w3.org/2000/svg"
 width="75.000000pt" height="75.000000pt" viewBox="0 0 75.000000 75.000000"
 preserveAspectRatio="xMidYMid meet">
<metadata>
Created by potrace 1.16, written by Peter Selinger 2001-2019
</metadata>
<g transform="translate(0.000000,75.000000) scale(0.100000,-0.100000)"
opacity="0.8" fill="#000000" stroke="none">
<path d="M300 664 c0 -9 -8 -28 -18 -42 -28 -39 -33 -71 -18 -107 14 -32 14
-33 -24 -54 -72 -40 -160 -163 -160 -223 0 -28 40 -71 85 -90 17 -7 53 -27 80
-43 44 -27 59 -30 130 -30 71 0 86 3 130 30 28 16 64 36 80 43 44 19 85 62 85
89 0 60 -89 184 -160 224 -37 21 -38 22 -24 54 15 36 10 68 -18 107 -10 14
-18 33 -18 42 0 9 -7 16 -15 16 -8 0 -15 -8 -15 -19 0 -10 -10 -25 -22 -33
-20 -14 -25 -14 -45 -1 -13 9 -23 24 -23 34 0 11 -7 19 -15 19 -8 0 -15 -7
-15 -16z m59 -78 c12 -14 17 -13 44 10 30 25 31 25 44 7 23 -31 26 -62 9 -88
-24 -36 -20 -48 24 -69 52 -25 111 -89 146 -157 l26 -53 -36 -33 c-36 -33 -66
-43 -66 -21 0 25 -64 148 -76 148 -20 0 -18 -10 15 -71 45 -85 46 -100 8 -127
-66 -45 -178 -45 -243 0 -39 27 -38 42 7 127 33 61 35 71 15 71 -12 0 -76
-123 -76 -148 0 -22 -30 -12 -66 21 l-36 33 26 53 c35 68 94 132 146 157 45
21 47 30 23 72 -17 29 -17 32 0 67 14 30 20 34 35 26 10 -5 24 -17 31 -25z"/>
</g>
</svg>
