<?xml version="1.0" standalone="no"?>
<!DOCTYPE svg PUBLIC "-//W3C//DTD SVG 20010904//EN"
 "http://www.w3.org/TR/2001/REC-SVG-20010904/DTD/svg10.dtd">
<svg version="1.0" xmlns="http://www.w3.org/2000/svg"
 width="50.000000pt" height="50.000000pt" viewBox="0 0 50.000000 50.000000"
 preserveAspectRatio="xMidYMid meet">
<metadata>
Created by potrace 1.16, written by Peter Selinger 2001-2019
</metadata>
<g transform="translate(0.000000,50.000000) scale(0.100000,-0.100000)"
fill="#000000" stroke="none">
<path d="M0 460 c0 -13 7 -20 20 -20 11 0 20 5 20 10 0 15 47 12 63 -5 8 -8
32 -85 52 -172 20 -87 43 -171 51 -188 7 -16 14 -41 16 -55 3 -21 8 -25 38
-25 31 0 35 3 38 28 3 21 9 27 27 27 18 0 24 -6 27 -27 3 -25 7 -28 38 -28 33
0 35 2 35 35 l0 35 -92 5 c-50 3 -94 7 -96 10 -2 3 -8 15 -11 27 -7 22 -5 22
90 25 l97 3 33 85 c50 130 60 120 -120 120 l-154 0 -19 63 -19 62 -67 3 c-62
3 -67 1 -67 -18z m423 -197 c-14 -38 -28 -76 -30 -85 -5 -15 -18 -18 -92 -18
l-87 0 -21 85 -20 85 138 0 138 0 -26 -67z"/>
</g>
</svg>
