<?xml version="1.0" standalone="no"?>
<!DOCTYPE svg PUBLIC "-//W3C//DTD SVG 20010904//EN"
 "http://www.w3.org/TR/2001/REC-SVG-20010904/DTD/svg10.dtd">
<svg version="1.0" xmlns="http://www.w3.org/2000/svg"
 width="1200.000000pt" height="186.000000pt" viewBox="0 0 1200.000000 186.000000"
 preserveAspectRatio="xMidYMid meet">
<metadata>
Created by potrace 1.16, written by Peter Selinger 2001-2019
</metadata>
<g transform="translate(0.000000,186.000000) scale(0.100000,-0.100000)"
fill="#000000" stroke="none">
<path d="M9008 1571 c-71 -23 -117 -51 -161 -100 -54 -60 -70 -115 -65 -219 7
-146 43 -190 282 -347 77 -51 161 -112 184 -136 145 -146 131 -365 -26 -426
-108 -41 -242 -8 -318 80 -38 44 -124 211 -124 240 0 11 -8 17 -21 17 -18 0
-20 -4 -16 -32 4 -18 9 -87 13 -152 6 -104 10 -123 29 -142 32 -31 129 -64
215 -72 231 -21 397 50 466 200 39 87 40 197 3 278 -43 92 -72 117 -356 299
-140 90 -193 166 -193 273 1 117 56 188 162 209 70 14 151 -7 203 -52 43 -38
92 -123 114 -198 11 -34 23 -56 32 -56 12 0 13 23 11 135 -3 89 -8 142 -17
156 -36 57 -293 85 -417 45z"/>
<path d="M1410 1550 c0 -18 7 -20 54 -20 44 0 61 -5 83 -24 l28 -24 5 -429 c5
-413 6 -430 28 -484 56 -141 163 -236 309 -274 86 -23 253 -21 334 4 153 48
255 160 294 323 11 49 15 141 15 413 1 303 3 357 18 400 19 55 66 95 112 95
26 0 46 21 33 34 -4 3 -96 6 -205 6 -191 0 -198 -1 -198 -20 0 -16 7 -20 34
-20 42 0 94 -34 120 -80 20 -33 21 -53 24 -374 3 -366 -3 -447 -43 -533 -29
-64 -101 -138 -163 -166 -40 -19 -65 -22 -167 -22 -112 0 -124 2 -172 27 -75
40 -115 79 -151 146 -59 110 -62 137 -62 558 0 210 3 390 6 399 10 24 58 45
107 45 42 0 67 17 50 34 -4 3 -116 6 -250 6 -236 0 -243 -1 -243 -20z"/>
<path d="M7533 1553 c-129 -3 -163 -6 -163 -17 0 -9 18 -15 60 -18 45 -3 66
-10 83 -26 l22 -23 0 -549 0 -549 -22 -23 c-17 -16 -38 -23 -83 -26 -51 -4
-60 -7 -60 -23 0 -19 10 -19 248 -17 212 3 247 5 247 18 0 11 -17 17 -64 21
-103 10 -101 2 -101 309 l0 258 91 7 c49 4 91 6 93 4 2 -2 36 -53 76 -114 163
-246 336 -457 401 -491 42 -21 304 -20 313 1 3 9 0 17 -7 19 -6 2 -34 9 -62
15 -123 29 -262 167 -492 489 -53 73 -94 134 -92 136 2 1 21 13 41 25 58 35
134 125 157 186 23 62 28 156 10 219 -14 52 -79 119 -142 147 -48 22 -66 24
-222 25 -93 0 -243 -1 -332 -3z m428 -61 c45 -23 59 -38 82 -84 52 -100 48
-276 -8 -360 -41 -62 -92 -81 -222 -86 l-113 -4 0 252 0 252 29 29 c27 27 35
29 104 29 62 0 84 -5 128 -28z"/>
<path d="M2830 1536 c0 -8 16 -16 39 -20 22 -3 59 -21 83 -39 l43 -33 0 -505
c0 -452 -2 -508 -17 -541 -20 -44 -70 -78 -115 -78 -26 0 -33 -4 -33 -20 0
-20 5 -20 192 -18 174 3 193 5 196 20 3 14 -3 18 -29 18 -48 0 -95 34 -114 83
-13 37 -15 101 -13 500 l3 459 460 -555 c270 -326 467 -556 477 -556 16 -1 18
38 20 582 3 535 4 585 21 614 21 40 57 64 103 72 19 3 36 11 37 16 1 6 -69 11
-190 13 -159 2 -193 0 -193 -11 0 -9 15 -16 41 -20 45 -6 72 -26 98 -72 14
-26 16 -84 19 -470 2 -269 -1 -436 -6 -430 -28 30 -740 907 -773 952 l-40 53
-154 0 c-125 0 -155 -3 -155 -14z"/>
<path d="M4292 1533 c2 -14 16 -19 58 -23 68 -7 98 -23 107 -58 10 -35 10
-1039 0 -1074 -10 -36 -54 -58 -117 -58 -44 0 -51 -3 -48 -18 3 -16 24 -17
251 -20 237 -2 247 -2 247 17 0 16 -9 19 -60 23 -45 3 -66 10 -83 26 l-22 23
-3 492 c-2 270 0 516 3 544 9 77 29 96 104 101 51 4 61 7 61 23 0 18 -12 19
-251 19 -233 0 -250 -1 -247 -17z"/>
<path d="M4870 1530 c0 -15 7 -20 25 -20 42 0 81 -26 113 -77 16 -26 141 -292
277 -590 136 -299 253 -550 260 -559 32 -44 44 -18 260 532 116 295 222 558
237 585 35 60 83 98 139 107 29 5 44 13 44 22 0 13 -33 15 -208 18 -195 2
-208 1 -205 -15 2 -14 17 -20 56 -25 64 -7 102 -37 102 -80 0 -24 -333 -892
-349 -910 -9 -11 -421 896 -421 925 0 33 33 60 83 66 29 4 43 11 45 24 3 16
-13 17 -227 17 -224 0 -231 -1 -231 -20z"/>
<path d="M6292 1538 c3 -8 30 -16 63 -19 69 -8 91 -28 100 -92 3 -23 5 -270 3
-549 l-3 -507 -23 -23 c-16 -17 -38 -24 -80 -28 -44 -4 -58 -9 -60 -23 -3 -16
22 -17 420 -17 233 0 432 3 444 6 19 5 22 15 28 132 4 70 8 138 9 152 4 48
-25 26 -48 -37 -58 -162 -158 -214 -383 -198 -77 6 -98 11 -120 30 l-27 23 -3
261 -3 261 151 0 c166 0 206 -9 236 -55 10 -15 20 -46 24 -69 3 -28 10 -42 23
-44 16 -3 17 9 15 185 -3 157 -5 188 -18 188 -8 0 -17 -15 -22 -39 -18 -87
-62 -106 -260 -113 l-148 -6 1 224 c0 243 7 285 49 306 16 8 70 13 151 13 113
0 130 -2 170 -23 54 -29 95 -85 111 -154 9 -35 18 -53 28 -53 13 0 15 20 12
140 l-3 140 -420 0 c-332 0 -420 -3 -417 -12z"/>
<path d="M9682 1538 c3 -8 30 -16 63 -19 69 -8 91 -28 100 -92 3 -23 5 -270 3
-549 l-3 -507 -23 -23 c-16 -17 -38 -24 -80 -28 -44 -4 -58 -9 -60 -23 -3 -16
22 -17 420 -17 233 0 432 3 444 6 19 5 22 15 28 132 4 70 8 138 9 152 4 48
-25 26 -48 -37 -58 -162 -158 -214 -383 -198 -77 6 -98 11 -120 30 l-27 23 -3
261 -3 261 151 0 c166 0 206 -9 236 -55 10 -15 20 -46 24 -69 3 -28 10 -42 23
-44 16 -3 17 9 15 185 -3 157 -5 188 -18 188 -8 0 -17 -15 -22 -39 -18 -87
-62 -106 -260 -113 l-148 -6 1 224 c0 243 7 285 49 306 16 8 70 13 151 13 113
0 130 -2 170 -23 54 -29 95 -85 111 -154 9 -35 18 -53 28 -53 13 0 15 20 12
140 l-3 140 -420 0 c-332 0 -420 -3 -417 -12z"/>
</g>
</svg>
